<?xml version="1.0" encoding="UTF-8"?>
<svg width="28px" height="20px" viewBox="0 0 28 20" version="1.1" xmlns="http://www.w3.org/2000/svg" xmlns:xlink="http://www.w3.org/1999/xlink">
    <title>icon-delivery</title>
    <g id="Pages" stroke="none" stroke-width="1" fill="none" fill-rule="evenodd" stroke-linecap="round" stroke-linejoin="round">
        <g id="d.lp" transform="translate(-765.000000, -793.000000)" stroke="#000000">
            <g id="vyhoda-doprava" transform="translate(765.000000, 793.000000)">
                <polyline id="Path" points="7.64800069 16.5261579 17.3823292 16.5261579 17.3823292 0.526157924 0.509508464 0.526157924 0.509508464 16.5261579 0.509508464 16.5261579 2.44728948 16.5261579"></polyline>
                <path d="M17.3823292,7.53956438 L24.5159527,7.45102539 L27.0795455,9.79410857 L27.0795455,16.5261579 L24.5159527,16.5261579 M19.6031376,16.5261579 L17.3823292,16.5" id="Shape"></path>
                <polyline id="Path" points="17.3823292 3.63241636 22.0983863 3.63241636 24.5159527 7.71768 24.5159527 7.71768"></polyline>
                <path d="M7.70466545,16.5003505 C7.70466545,17.8819571 6.58537754,19 5.20466545,19 C3.82395337,19 2.70466545,17.8819571 2.70466545,16.5003505 C2.70466545,15.1187439 3.82395337,14 5.20466545,14 C6.58537754,14 7.70466545,15.1187439 7.70466545,16.5003505 Z" id="Stroke-8"></path>
                <path d="M24.2992091,16.5003505 C24.2992091,17.8819571 23.1797643,19 21.7988586,19 C20.417953,19 19.2992091,17.8819571 19.2992091,16.5003505 C19.2992091,15.1187439 20.417953,14 21.7988586,14 C23.1797643,14 24.2992091,15.1187439 24.2992091,16.5003505 Z" id="Stroke-10"></path>
            </g>
        </g>
    </g>
</svg>