<?xml version="1.0" encoding="UTF-8"?>
<svg width="20px" height="26px" viewBox="0 0 20 26" version="1.1" xmlns="http://www.w3.org/2000/svg" xmlns:xlink="http://www.w3.org/1999/xlink">
    <title>icon-guarantee</title>
    <g id="Styleguide" stroke="none" stroke-width="1" fill="none" fill-rule="evenodd">
        <g id="_Icons" transform="translate(-1275.000000, -659.000000)">
            <g id="vyhoda-garance" transform="translate(1276.000000, 660.000000)">
                <g id="Group-8" stroke="#060606">
                    <path d="M8.95961118,23.9912742 C8.44096466,23.8610101 5.49486967,22.6020761 2.76923077,20.4705882 C1.26110509,18.6330532 0.433147263,17.0681682 0.285357282,15.7759331 L0.285357282,15.7759331 L0.285357282,1.83171096 C0.728921911,2.13437984 1.78764897,2.22969188 3.46153846,2.11764706 C5.16793066,1.89106754 7.01408451,1.18518519 9,0 L9,0 C10.9859155,1.18518519 12.8320693,1.89106754 14.5384615,2.11764706 C16.212351,2.22969188 17.2647524,2.13437984 17.6956658,1.83171096 L17.5986724,15.7759331 C17.528196,17.0681682 16.7388949,18.6330532 15.2307692,20.4705882 C12.4225352,22.6666667 9.38028169,23.9365079 9,24 Z" id="Combined-Shape"></path>
                </g>
                <polyline id="check-mini-black" stroke="#000000" points="4.7772745 12.2114064 7.95837563 16.7627351 14.1666537 6.97999403"></polyline>
            </g>
        </g>
    </g>
</svg>