<svg xmlns="http://www.w3.org/2000/svg" width="31" height="35" viewBox="0 0 31 35">
  <path fill="none" stroke="currentColor"
    d="M5.90344346,28.6290314 C6.69793862,28.6290314 7.40748649,28.9598034 7.92165651,29.4840517 C8.44916267,30.0218975 8.77232143,30.7630571 8.77232143,31.563943 C8.77232143,32.3875803 8.45784827,33.1240393 7.93859113,33.653651 C7.42267952,34.1798504 6.7057103,34.5 5.90344346,34.5 C5.12244931,34.5 4.40079593,34.1711203 3.87685356,33.63673 C3.35929254,33.1088482 3.03456548,32.3797471 3.03456548,31.563943 C3.03456548,30.7706052 3.36822701,30.0370696 3.89390564,29.5010871 C4.41597564,28.968784 5.12994793,28.6290314 5.90344346,28.6290314 Z M27.5645157,28.6290314 C28.3785979,28.6290314 29.1061215,28.9606057 29.6331327,29.487529 C30.1701688,30.0244757 30.5,30.7641683 30.5,31.563943 C30.5,32.3864108 30.1790448,33.1214428 29.6504027,33.6501731 C29.1216286,34.1790353 28.3865688,34.5 27.5645157,34.5 C26.7642941,34.5 26.0243722,34.170358 25.4873557,33.6332521 C24.9604475,33.1062561 24.6290314,32.3786028 24.6290314,31.563943 C24.6290314,30.7716921 24.9695773,30.0396435 25.5047455,29.5045645 C26.0398657,28.9695335 26.7719848,28.6290314 27.5645157,28.6290314 Z M6.06244676,0.5 L6.25136116,4.59775159 L30.5,4.59775159 L30.5,14.6854348 L14.0496374,20.5576936 C13.033356,20.8902526 11.8315953,21.5588892 11.3593591,22.0663874 C11.1606342,23.4338523 11.5832205,23.5481014 12.3299561,23.5481014 L12.3299561,23.5481014 L30.223361,23.5481014 L30.4996329,26.1476557 L9.61883545,26.4494629 C9.44825738,26.4494629 8.25134802,26.0830455 8.15648974,25.9521721 C8.08060325,25.8474737 7.50810481,25.1691858 7.49000186,25.0140911 L7.49000186,25.0140911 L7.59862667,23.1540271 L7.24235609,21.3153513 L3.78865143,3.3645881 L0.5,3.3645881 L0.5,0.774205817 L6.06244676,0.5 Z" />
</svg>