<svg xmlns="http://www.w3.org/2000/svg" width="127" height="44" fill="#1a1919" fill-rule="evenodd" xmlns:v="https://vecta.io/nano"><path d="M125.848 39.688h-4.005v-.616h3.697V.862H4.928v3.697h-.616V.554L4.62.246h121.228l.308.308V39.38l-.308.308"/><path d="M.923 43.076h120.612v-38.2H.923v38.2zm120.92.616H.615l-.308-.3V4.558l.308-.308h121.228l.308.308v38.825l-.308.3zM45.3 19.45l-2.124 5.575-2.125-5.575h-6.54l-2.197 5.375-2.197-5.375h-6.92l-2.124 5.575-2.125-5.575h-3.595l4.013 9.624h3.414l3.858-9.252 3.88 8.5-2.05 4.394h3.704l1.852-4.23 3.77-8.218 3.676 8.817h3.414l4.013-9.624H45.3m10.426 4.812c0-1.707-.727-2.16-1.817-2.16s-1.815.454-1.815 2.16.726 2.162 1.815 2.162 1.817-.455 1.817-2.162zm-6.937 0c0-3.396 1.96-5.102 5.12-5.102s5.12 1.706 5.12 5.102-1.96 5.102-5.12 5.102-5.12-1.707-5.12-5.102h0zm11.668 4.812h3.27V14.9h-3.27zm8.2-5.81h3.287c.054-.962-.6-1.434-1.526-1.434-1.034 0-1.724.58-1.76 1.434zm-.055 1.926c0 .962.673 1.508 1.87 1.508 1.125 0 1.5-.255 1.525-.618l3.304.4c-.036 1.58-1.325 2.885-4.703 2.885-3.396 0-5.357-1.78-5.357-5.102s1.96-5.102 5.158-5.102c3.214 0 5.03 1.76 5.03 5.102v.927H68.59zm8.538-6.973h3.34V14.9h-3.34v3.305zm.037 1.234h3.268v10.043c0 1.67-.908 3.504-4.16 3.504-.98 0-1.67-.2-2.052-.362l.236-2.942c.3.2 1.053.5 1.707.436.617-.073 1-.327 1-1.1v-9.58zm5.865 9.624h3.34V25.77h-3.34zm4.994-9.625h1.762v-2.906h3.27v2.906h2.906v2.724h-2.906v3.232c0 .764.382 1.018 1 1.1.654.07 1.4-.236 1.708-.436L96 29.003c-.38.163-1.072.362-2.053.362-3.25 0-4.158-1.833-4.158-3.503v-3.687h-1.762V19.45m15.89 4.813c0-1.707-.726-2.16-1.816-2.16s-1.816.454-1.816 2.16.726 2.162 1.816 2.162 1.816-.455 1.816-2.162zm-6.936 0c0-3.396 1.96-5.102 5.12-5.102s5.12 1.706 5.12 5.102-1.96 5.102-5.12 5.102-5.12-1.707-5.12-5.102h0z"/></svg>