<?xml version="1.0" encoding="UTF-8"?>
<svg width="1140px" height="9px" viewBox="0 0 1140 9" version="1.1" xmlns="http://www.w3.org/2000/svg" xmlns:xlink="http://www.w3.org/1999/xlink">
    <title>separator</title>
    <g id="Pages" stroke="none" stroke-width="1" fill="none" fill-rule="evenodd">
        <g id="d.category-occasion-v2" transform="translate(-150.000000, -3155.000000)" stroke="#A7A7A7">
            <g id="separator" transform="translate(151.000000, 3156.000000)">
                <polyline id="Imported-Layers" points="0 8.34887715e-14 9.18271716 6.40561896 18.3654343 8.34887715e-14 27.5492636 6.40561896 36.7314247 8.34887715e-14 45.9146979 6.40561896 55.0979711 8.34887715e-14 64.2806883 6.40561896 73.4645176 8.34887715e-14 82.6477908 6.40561896 91.830508 8.34887715e-14 101.014337 6.40561896 110.197054 8.34887715e-14 119.380884 6.40561896 128.564157 8.34887715e-14 137.747986 6.40561896 146.929591 8.34887715e-14 156.110084 6.40561896 165.290577 8.34887715e-14 174.474962 6.40561896 183.656567 8.34887715e-14 192.83706 6.40561896 202.019778 8.34887715e-14 211.202495 6.40561896 220.3841 8.34887715e-14 229.566817 6.40561896 238.749534 8.34887715e-14 247.931695 6.40561896 257.114968 8.34887715e-14 266.297686 6.40561896 275.480403 8.34887715e-14 284.664232 6.40561896 293.846949 8.34887715e-14 303.031891 6.40561896 312.215164 8.34887715e-14 321.399549 6.40561896 330.582822 8.34887715e-14 339.766652 6.40561896 348.951037 8.34887715e-14 358.134866 6.40561896 367.318696 8.34887715e-14 376.504749 6.40561896 385.688578 8.34887715e-14 394.872964 6.40561896 404.057349 8.34887715e-14 413.241734 6.40561896 422.427232 8.34887715e-14 431.612729 6.40561896 440.797671 8.34887715e-14 449.982612 6.40561896 459.165885 8.34887715e-14 468.349714 6.40561896 477.5341 8.34887715e-14 486.720709 6.40561896 495.905095 8.34887715e-14 505.090592 6.40561896 514.27609 8.34887715e-14 523.463255 6.40561896 532.647641 8.34887715e-14 541.835362 6.40561896 551.023084 8.34887715e-14 560.21303 6.40561896 569.401864 8.34887715e-14"></polyline>
                <polyline id="Imported-Layers-Copy-2" points="569 8.34887715e-14 578.182717 6.40561896 587.365434 8.34887715e-14 596.549264 6.40561896 605.731425 8.34887715e-14 614.914698 6.40561896 624.097971 8.34887715e-14 633.280688 6.40561896 642.464518 8.34887715e-14 651.647791 6.40561896 660.830508 8.34887715e-14 670.014337 6.40561896 679.197054 8.34887715e-14 688.380884 6.40561896 697.564157 8.34887715e-14 706.747986 6.40561896 715.929591 8.34887715e-14 725.110084 6.40561896 734.290577 8.34887715e-14 743.474962 6.40561896 752.656567 8.34887715e-14 761.83706 6.40561896 771.019778 8.34887715e-14 780.202495 6.40561896 789.3841 8.34887715e-14 798.566817 6.40561896 807.749534 8.34887715e-14 816.931695 6.40561896 826.114968 8.34887715e-14 835.297686 6.40561896 844.480403 8.34887715e-14 853.664232 6.40561896 862.846949 8.34887715e-14 872.031891 6.40561896 881.215164 8.34887715e-14 890.399549 6.40561896 899.582822 8.34887715e-14 908.766652 6.40561896 917.951037 8.34887715e-14 927.134866 6.40561896 936.318696 8.34887715e-14 945.504749 6.40561896 954.688578 8.34887715e-14 963.872964 6.40561896 973.057349 8.34887715e-14 982.241734 6.40561896 991.427232 8.34887715e-14 1000.61273 6.40561896 1009.79767 8.34887715e-14 1018.98261 6.40561896 1028.16589 8.34887715e-14 1037.34971 6.40561896 1046.5341 8.34887715e-14 1055.72071 6.40561896 1064.90509 8.34887715e-14 1074.09059 6.40561896 1083.27609 8.34887715e-14 1092.46326 6.40561896 1101.64764 8.34887715e-14 1110.83536 6.40561896 1120.02308 8.34887715e-14 1129.21303 6.40561896 1138.40186 8.34887715e-14"></polyline>
            </g>
        </g>
    </g>
</svg>